<?xml version="1.0" encoding="UTF-8"?>
<svg xmlns="http://www.w3.org/2000/svg" xmlns:xlink="http://www.w3.org/1999/xlink" width="1299pt" height="914pt" viewBox="0 0 1299 914" version="1.1">
<g id="surface1">
<path style="fill-rule:evenodd;fill:rgb(39.215686%,69.803922%,80.784314%);fill-opacity:1;stroke-width:0.5;stroke-linecap:butt;stroke-linejoin:miter;stroke:rgb(39.215686%,69.803922%,80.784314%);stroke-opacity:1;stroke-miterlimit:4;" d="M 0 419.5 L 0 0 L 832.998445 0 L 844.198605 32.500923 C 851.732345 54.165815 858.498361 78.000064 864.500241 104.000085 C 870.498533 130.000107 874.832227 154.332771 877.501323 177.001663 C 880.166832 199.666969 881.50138 226.498876 881.50138 257.50097 C 881.50138 288.499479 879.99822 316.500329 876.999074 341.499936 C 873.999928 366.499543 869.332597 392.499564 863.000668 419.5 C 856.665151 446.500436 849.167286 472.500457 840.499898 497.500064 C 831.832509 522.499671 822.501434 546.000449 812.499498 567.998812 C 802.501149 590.000761 790.666002 612.999538 777.001233 636.998731 C 763.332876 661.001509 750.267219 682.067586 737.800673 700.200548 C 725.265965 718.401639 712.666682 735.498329 699.999236 751.501376 C 687.331791 767.500838 674.667933 782.499885 662.000487 796.498517 C 649.333042 810.500735 640.99929 819.665823 636.999233 824.000953 C 632.999176 828.332497 630.667304 830.598669 630.00003 830.799469 C 629.332756 830.932141 628.834094 831.398284 628.500457 832.201484 C 628.16682 833.065641 627.668158 833.599913 627.000884 833.800713 C 626.33361 833.933384 625.501311 834.600327 624.5004 835.801542 C 623.499489 836.934628 623.833126 837.666114 625.501311 837.999585 L 627.998208 838.501586 L 627.998208 839 L 0 839 Z M 0 419.5 " transform="matrix(1.088852,0,0,1.089392,0,0)"/>
<path style="fill-rule:evenodd;fill:rgb(21.176471%,37.254902%,62.352941%);fill-opacity:1;stroke-width:0.5;stroke-linecap:butt;stroke-linejoin:miter;stroke:rgb(21.176471%,37.254902%,62.352941%);stroke-opacity:1;stroke-miterlimit:4;" d="M 844.198605 32.500923 L 832.998445 0 L 1193 0 L 1193 839 L 627.998208 839 L 627.998208 838.501586 L 625.501311 837.999585 C 623.833126 837.666114 623.499489 836.934628 624.5004 835.801542 C 625.501311 834.600327 626.33361 833.933384 627.000884 833.800713 C 627.668158 833.599913 628.16682 833.065641 628.500457 832.201484 C 628.834094 831.398284 629.332756 830.932141 630.00003 830.799469 C 630.667304 830.598669 632.999176 828.332497 636.999233 824.000953 C 640.99929 819.665823 649.333042 810.500735 662.000487 796.498517 C 674.667933 782.499885 687.331791 767.500838 699.999236 751.501376 C 712.666682 735.498329 725.265965 718.401639 737.800673 700.200548 C 750.267219 682.067586 763.332876 661.001509 777.001233 636.998731 C 790.666002 612.999538 802.501149 590.000761 812.499498 567.998812 C 822.501434 546.000449 831.832509 522.499671 840.499898 497.500064 C 849.167286 472.500457 856.665151 446.500436 863.000668 419.5 C 869.332597 392.499564 873.999928 366.499543 876.999074 341.499936 C 879.99822 316.500329 881.50138 288.499479 881.50138 257.50097 C 881.50138 226.498876 880.166832 199.666969 877.501323 177.001663 C 874.832227 154.332771 870.498533 130.000107 864.500241 104.000085 C 858.498361 78.000064 851.732345 54.165815 844.198605 32.500923 Z M 844.198605 32.500923 " transform="matrix(1.088852,0,0,1.089392,0,0)"/>
</g>
</svg>
